Coordinates
version=1
nRows=9
nColumns=24
inDegrees=yes

Units are S.I. units (second, meters, Newtons, ...)
Angles are in degrees.

endheader
time	pelvis_tilt	pelvis_list	pelvis_rotation	pelvis_tx	pelvis_ty	pelvis_tz	hip_flexion_r	hip_adduction_r	hip_rotation_r	knee_angle_r	ankle_angle_r	subtalar_angle_r	mtp_angle_r	hip_flexion_l	hip_adduction_l	hip_rotation_l	knee_angle_l	ankle_angle_l	subtalar_angle_l	mtp_angle_l	lumbar_extension	lumbar_bending	lumbar_rotation
      0.68316667	      1.18337042	     -2.25660170	      2.41393372	     -0.46994049	      0.99068248	      0.30720384	     10.29781283	      7.00729513	     -0.77024183	    -18.43235753	      9.06385579	     -9.65954360	     -1.10006725	     21.12739668	     -1.98264779	     -0.73759805	    -73.11955796	     -3.89701659	     -8.70651112	     -0.06270459	     -1.21893655	      5.64364598	      2.25270762
      0.68733333	      1.26847801	     -2.13089628	      2.35699503	     -0.46460334	      0.99175965	      0.30727010	      9.61096830	      6.88401794	     -0.75814198	    -17.95784430	      9.10523892	     -9.43186473	     -1.10649641	     21.62308056	     -1.78977450	     -0.72433665	    -72.80081029	     -3.37118717	     -9.05281990	     -0.21914672	     -1.34314779	      5.52339306	      2.41054789
      0.69150000	      1.33378367	     -2.02181448	      2.28129779	     -0.45927806	      0.99275537	      0.30737270	      8.95694252	      6.78156357	     -0.72858060	    -17.50350896	      9.15951327	     -9.24302546	     -1.11215245	     22.12441033	     -1.63103208	     -0.73579100	    -72.43130931	     -2.80783583	     -9.36369612	     -0.38429903	     -1.43998991	      5.41356265	      2.55303823
      0.69566667	      1.37406169	     -1.91422629	      2.19070338	     -0.45396543	      0.99366142	      0.30748829	      8.33841157	      6.68090667	     -0.67948919	    -17.06275447	      9.21232247	     -9.07842340	     -1.11640805	     22.63378961	     -1.47971172	     -0.76101439	    -72.00241795	     -2.24854981	     -9.64788085	     -0.53856994	     -1.50961386	      5.30523379	      2.69243891
      0.69983333	      1.38791404	     -1.80188423	      2.08275290	     -0.44866690	      0.99447906	      0.30762549	      7.76262672	      6.57373206	     -0.62004345	    -16.64953681	      9.27506081	     -8.93983373	     -1.11815088	     23.15160606	     -1.33507651	     -0.81331105	    -71.51435635	     -1.68667978	     -9.92627461	     -0.64518770	     -1.54832816	      5.17512337	      2.81064752
      0.70400000	      1.44681018	     -1.69162691	      1.98093205	     -0.44335302	      0.99534689	      0.30774430	      7.11704182	      6.47032790	     -0.53894116	    -16.19020149	      9.32255869	     -8.77214181	     -1.12103875	     23.59224637	     -1.18883807	     -0.84808576	    -70.94897820	     -1.16775389	    -10.14397345	     -0.79762017	     -1.65314754	      5.07107167	      2.99824524
      0.70816667	      1.42836814	     -1.58274860	      1.85739576	     -0.43808897	      0.99600687	      0.30787824	      6.59086217	      6.36481990	     -0.44083960	    -15.80009078	      9.39922619	     -8.65270151	     -1.12013936	     24.10815520	     -1.05014885	     -0.90428784	    -70.34771178	     -0.61878242	    -10.37121823	     -0.85067416	     -1.66948513	      4.95400886	      3.08038580
      0.71233333	      1.51264561	     -1.46197737	      1.72468830	     -0.43273727	      0.99681696	      0.30802083	      5.92418933	      6.24382498	     -0.36871607	    -15.35432751	      9.44268129	     -8.46424956	     -1.12197358	     24.46424836	     -0.92263265	     -0.99566014	    -69.64792368	     -0.12916015	    -10.54278471	     -1.01892810	     -1.78431437	      4.83212474	      3.34297604
      0.71650000	      1.52877298	     -1.35646682	      1.57741180	     -0.42743624	      0.99743774	      0.30817512	      5.35662627	      6.13754202	     -0.26763140	    -14.95417579	      9.50495512	     -8.30605004	     -1.12260396	     24.88724927	     -0.81191989	     -1.08741873	    -68.91508104	      0.37296070	    -10.69268368	     -1.20777108	     -1.83061593	      4.72920341	      3.54767041
